# xmcd CD database file
#
# Track frame offsets:
#	150
#	18995
#	35603
#	53088
#	75428
#	102090
#	119154
#	134745
#	153071
#	178442
#	190005
#	215360
#
# Disc length: 3086 seconds
#
# Revision: 0
# Processed by: cddbd v1.5.2PL0 Copyright (c) Steve Scherf et al.
# Submitted via: CDex 1.70beta2
#
DISCID=a10c0c0c
DTITLE=Buddy Flett - Mississippi Sea
DYEAR=2007
DGENRE=Blues
TTITLE0=Baby's Back In Town
TTITLE1=Done Somebody Wrong
TTITLE2=I Hear Ya' Callin'
TTITLE3=Mississippi Sea
TTITLE4=Stoner Hill
TTITLE5=Hideaway
TTITLE6=Dance For Me
TTITLE7=Mama's Kitchen
TTITLE8=Run For The Levee
TTITLE9=Linin' Track
TTITLE10=What Have I Done
TTITLE11=I Get Evil (Don't You Lie To Me)
EXTD=YEAR: 2007
EXTT0=
EXTT1=
EXTT2=
EXTT3=
EXTT4=
EXTT5=
EXTT6=
EXTT7=
EXTT8=
EXTT9=
EXTT10=
EXTT11=
PLAYORDER=
